# xmcd CD database file
#
# Track frame offsets:
#	150
#	4972
#	26897
#	41470
#	61305
#	79524
#	94257
#	115291
#	131664
#	145703
#	161485
#	180679
#	202972
#
# Disc length: 2920 seconds
#
# Revision: 7
# Processed by: cddbd v1.5.2PL0 Copyright (c) Steve Scherf et al.
# Submitted via: CDex 1.51
#
DISCID=aa0b660d
DTITLE=Various Artist - A Tribute To Bruce Springsteen - A Tribute To Bruce Springsteen
DYEAR=2003
DGENRE=Country
TTITLE0=Eric Rigler/Born In The Usa
TTITLE1=Shane Torrel/Into The Fire
TTITLE2=Shane Torrel/Cover Me
TTITLE3=Bob Khaleel/Streets Of Philadelphia
TTITLE4=Jerry Lawson And Jimmy Hayes/Born To Run
TTITLE5=Mike Love/Hungry Heart
TTITLE6=Shane Torrel/Paradise
TTITLE7=Shane Torrel/Glory Days
TTITLE8=Teddy "Zig Zag" From Guns N' Roses/57 Channels
TTITLE9=Shane Torrel/Pink Cadillac
TTITLE10=Lttle Milton/I'm On Fire
TTITLE11=Shane Torrel/You're Missing
TTITLE12=Shane Torrel/Dancing In The Dark
EXTD=YEAR: 2003
EXTT0=
EXTT1=
EXTT2=
EXTT3=
EXTT4=
EXTT5=
EXTT6=
EXTT7=
EXTT8=
EXTT9=
EXTT10=
EXTT11=
EXTT12=
PLAYORDER=
